<?xml version="1.0" encoding="UTF-8"?><svg id="a" xmlns="http://www.w3.org/2000/svg" viewBox="0 0 614.004 174.868"><defs><style>.b{fill:#444545;}.c{fill:#fff;}</style></defs><path class="b" d="M57.687,0C3.59,31.81-4.639,83.282,1.93,115.518c12.295,60.332,100.718,77.184,140.68,38.887,27.45-26.306,30.964-71.8-2.064-96.977C111.558,35.33,39.207,50.021,57.687,0Z"/><path class="c" d="M147.974,86.366c-14.041.063-19.615-.46-32.369-.054-2.916.093-4.871,1.704-5.546,3.512-1.955,5.231-3.395,10.102-6.126,16.873-1.215,3.012-.731,7.338,4.26,7.171h1.273c1.167-.024,1.639,1.032,1.241,2.129l-2.833,8.223c-.405,1.409.005,3.695,3.171,3.775,10.165.257,4.499.012,14.352,0,1.185-.001,1.996,1.202,1.543,2.297l-.203.491c-.448.916-.723,1.167-1.65,1.167l-27.627.15c-.676.002-1.284.413-1.537,1.041l-2.364,6.46c-.418,1.037.26,2.089,1.378,2.076,9.066-.107,23.759.27,30.439.022,6.498-.241,8.516-1.706,10.388-6.442l3.108-10.099c1.054-2.933-.471-6.2-3.811-6.2-11.316,0-.738-.046-12.092.004-.5.002-.775-.38-.604-.851l.992-2.737c.328-.904,1.186-1.506,2.148-1.506h4.825c3.164-.094,4.164-1.176,5.239-3.499l5.696-14.973c.239-.656.863-1.093,1.562-1.093h3.72c.971,0,1.836-.614,2.157-1.531l1.26-3.606c.541-1.547-.353-2.808-1.992-2.8ZM130.926,96.825l-2.405,6.372c-.222.626-.771,1.044-1.369,1.044h-9.851c-.987,0-1.633-1.095-1.251-2.122l1.901-6.372c.228-.614.77-1.02,1.36-1.02h10.354c.977,0,1.623,1.075,1.26,2.097Z"/><path class="c" d="M66.236,72.404c-7.478-.073-21.41-.383-26.826.042-3.855.302-5.443,1.588-6.787,5.39-2.798,7.912-12.405,34.804-16.262,45.625-.672,1.884.727,3.86,2.727,3.86h28.742c1.503.028,2.245-.505,2.94-2.001l2.699-6.807c.497-1.375-.521-2.826-1.983-2.826h-16.004c-1.452,0-2.47-1.433-1.991-2.804l9.37-26.909c.54-2.094,1.888-3.398,3.932-3.313h17.229c1.24,0,2.339-.791,2.74-1.964.445-1.303.81-2.62,1.448-4.44.655-1.869.006-3.834-1.974-3.854Z"/><path class="c" d="M73.554,74.149c1.377-4.101-9.911,27.878-18.324,50.934-.53,1.454.548,2.987,2.095,2.987h7.165c.953,0,1.801-.607,2.109-1.509l10.541-29.816c.308-.902,1.155-1.509,2.109-1.509h10.875c1.685.022,1.334,1.13.667,2.964l-8.947,26.907c-.507,1.449.569,2.964,2.103,2.964h6.67c.94,0,1.78-.59,2.097-1.476l18.292-50.99c.521-1.452-.555-2.98-2.097-2.98h-6.205c-.934,0-1.769.583-2.091,1.46l-4.711,11.301c-.322.877-.439,1.46-1.373,1.46h-12.041c-1.539,0-1.897-.806-1.381-2.256l2.659-8.967c.516-1.452-.558-2.977-2.099-2.974-1.39.003-3.329,0-5.985-.014-.963-.005-1.821.603-2.128,1.516Z"/><path class="b" d="M199.419,71.434c3.178,0,5.882.52,8.111,1.56,2.229,1.041,4.271,2.508,6.127,4.404l-5.151,7.663c-1.216-1.237-2.56-2.218-4.031-2.943-1.472-.724-3.072-1.086-4.799-1.086-1.856,0-3.552.651-5.087,1.955-1.536,1.303-2.763,3.357-3.679,6.162-.917,2.804-1.376,6.445-1.376,10.921,0,4.398.442,7.986,1.328,10.765s2.106,4.818,3.664,6.122c1.557,1.304,3.338,1.955,5.343,1.955,2.218,0,4.063-.514,5.535-1.54,1.472-1.027,2.826-2.146,4.063-3.357l4.767,7.505c-1.664,2.027-3.711,3.766-6.143,5.214s-5.365,2.172-8.799,2.172c-4.01,0-7.566-1.1-10.67-3.298s-5.535-5.438-7.295-9.717-2.64-9.553-2.64-15.82c0-6.108.912-11.296,2.735-15.562,1.824-4.266,4.303-7.511,7.439-9.737,3.135-2.225,6.655-3.337,10.558-3.337Z"/><path class="b" d="M231.99,84.232c3.498,0,6.474.922,8.927,2.765,2.452,1.843,4.329,4.431,5.631,7.762,1.301,3.332,1.951,7.235,1.951,11.711,0,4.661-.655,8.67-1.968,12.027-1.312,3.358-3.194,5.933-5.646,7.723-2.453,1.79-5.418,2.686-8.895,2.686-3.456,0-6.415-.882-8.879-2.646-2.463-1.764-4.351-4.318-5.663-7.662-1.312-3.345-1.968-7.36-1.968-12.048,0-4.45.656-8.348,1.968-11.692,1.312-3.344,3.2-5.951,5.663-7.821,2.464-1.87,5.423-2.805,8.879-2.805ZM231.99,93.435c-2.069,0-3.6,1.047-4.592,3.14-.991,2.094-1.487,5.418-1.487,9.974,0,4.635.496,7.992,1.487,10.072.992,2.081,2.522,3.121,4.592,3.121s3.6-1.04,4.591-3.121c.992-2.08,1.488-5.464,1.488-10.151,0-4.529-.496-7.834-1.488-9.914-.991-2.08-2.522-3.121-4.591-3.121Z"/><path class="b" d="M253.554,127.563v-41.949h8.83l.704,4.859c1.515-2.106,3.114-3.674,4.8-4.701,1.685-1.027,3.604-1.541,5.759-1.541,2.9,0,5.183,1.093,6.847,3.278,1.664,2.187,2.496,5.267,2.496,9.243v30.81h-10.11v-27.215c0-1.712-.097-3.074-.288-4.089-.192-1.013-.528-1.738-1.008-2.172-.48-.435-1.136-.652-1.968-.652-.704,0-1.392.191-2.063.573-.672.382-1.328.928-1.968,1.639-.641.71-1.28,1.567-1.92,2.567v29.349h-10.11Z"/><path class="b" d="M303.466,119.979c1.685,0,3.044-.329,4.079-.987,1.034-.658,1.552-1.646,1.552-2.963,0-.895-.203-1.645-.607-2.251-.406-.605-1.185-1.186-2.336-1.738-1.152-.553-2.858-1.211-5.119-1.975-2.069-.685-3.898-1.554-5.487-2.607-1.589-1.053-2.826-2.409-3.712-4.068-.885-1.659-1.327-3.726-1.327-6.201,0-2.501.564-4.727,1.695-6.675s2.794-3.482,4.991-4.602c2.197-1.119,4.885-1.679,8.063-1.679,3.028,0,5.668.481,7.918,1.442,2.25.961,4.196,2.179,5.84,3.654l-4.032,7.347c-1.407-1.079-2.922-1.941-4.543-2.587-1.621-.645-3.253-.968-4.896-.968s-2.863.27-3.663.81c-.8.54-1.2,1.35-1.2,2.429,0,.711.208,1.323.624,1.837s1.2,1.041,2.352,1.58c1.152.54,2.837,1.205,5.056,1.995,2.196.764,4.111,1.646,5.743,2.646s2.896,2.337,3.791,4.009c.896,1.673,1.344,3.878,1.344,6.616,0,3.056-.735,5.616-2.207,7.683-1.472,2.068-3.424,3.614-5.855,4.642s-5.099,1.54-7.999,1.54c-3.285,0-6.186-.579-8.702-1.737-2.518-1.158-4.661-2.687-6.432-4.582l5.088-7.031c1.322,1.264,2.82,2.317,4.495,3.16,1.674.843,3.503,1.264,5.487,1.264Z"/><path class="b" d="M356.705,125.113c-1.322,1.054-2.923,1.949-4.799,2.687-1.878.737-3.989,1.105-6.335,1.105-4.438,0-7.732-1.401-9.887-4.206s-3.231-6.616-3.231-11.436v-19.039h-7.135v-8.611h7.135v-9.085l10.11-1.501v10.586h10.942l-.992,8.611h-9.95v19.039c0,2.081.384,3.568,1.151,4.464.769.896,1.994,1.343,3.68,1.343,1.194,0,2.288-.178,3.279-.533.992-.355,1.883-.81,2.672-1.363l3.359,7.939Z"/><path class="b" d="M362.718,127.563v-8.374h4.479v-25.279h-4.479v-8.295h12.19l1.855,9.441c1.216-3.607,2.768-6.293,4.655-8.058,1.888-1.764,4.196-2.646,6.928-2.646,1.151,0,2.175.112,3.071.335.896.224,1.738.533,2.527.928l-3.071,10.31c-.619-.21-1.237-.368-1.855-.474-.619-.105-1.302-.158-2.048-.158-2.219,0-4.165,1.12-5.84,3.357-1.674,2.239-2.948,5.083-3.823,8.532v12.008h6.72v8.374h-21.31ZM385.723,103.152v-12.244l1.504-5.293h6.719l-1.888,17.538h-6.335Z"/><path class="b" d="M427.285,115.476c0,1.58.176,2.726.527,3.437.353.711.923,1.251,1.712,1.62l-2.079,8.216c-2.006-.237-3.695-.784-5.071-1.64s-2.459-2.152-3.248-3.891c-1.301,1.923-2.965,3.352-4.991,4.286-2.026.934-4.095,1.401-6.207,1.401-3.498,0-6.287-1.23-8.366-3.692-2.08-2.462-3.12-5.629-3.12-9.5,0-4.556,1.445-8.071,4.336-10.547,2.89-2.475,6.959-3.713,12.206-3.713h4.575v-1.58c0-2.186-.571-3.805-1.712-4.858-1.142-1.053-2.811-1.58-5.007-1.58-1.088,0-2.485.191-4.191.573-1.707.382-3.413.928-5.119,1.639l-2.336-8.295c2.196-1.027,4.484-1.804,6.863-2.331,2.378-.526,4.506-.79,6.383-.79,5.055,0,8.793,1.271,11.214,3.812,2.421,2.542,3.632,6.208,3.632,11v16.432ZM411.415,119.979c1.088,0,2.229-.401,3.424-1.204,1.194-.804,2.101-1.942,2.72-3.417v-6.794h-2.496c-2.815,0-4.885.533-6.207,1.6s-1.983,2.627-1.983,4.681c0,1.606.4,2.863,1.2,3.772.8.908,1.914,1.362,3.343,1.362Z"/><path class="b" d="M455.727,85.614v33.417h8.639v8.532h-28.38v-8.532h9.631v-24.884h-9.311v-8.532h19.421ZM449.616,63.652c1.749,0,3.178.672,4.287,2.015s1.664,3.016,1.664,5.017-.555,3.68-1.664,5.036c-1.109,1.356-2.538,2.034-4.287,2.034-1.771,0-3.215-.678-4.335-2.034-1.12-1.356-1.68-3.035-1.68-5.036s.56-3.674,1.68-5.017,2.564-2.015,4.335-2.015Z"/><path class="b" d="M471.245,127.563v-41.949h8.83l.704,4.859c1.515-2.106,3.114-3.674,4.8-4.701,1.685-1.027,3.604-1.541,5.759-1.541,2.9,0,5.183,1.093,6.847,3.278,1.664,2.187,2.496,5.267,2.496,9.243v30.81h-10.11v-27.215c0-1.712-.097-3.074-.288-4.089-.192-1.013-.528-1.738-1.008-2.172-.48-.435-1.136-.652-1.968-.652-.704,0-1.392.191-2.063.573-.672.382-1.328.928-1.968,1.639-.641.71-1.28,1.567-1.92,2.567v29.349h-10.11Z"/><path class="b" d="M538.113,125.113c-1.322,1.054-2.923,1.949-4.799,2.687-1.878.737-3.989,1.105-6.335,1.105-4.438,0-7.732-1.401-9.887-4.206s-3.231-6.616-3.231-11.436v-19.039h-7.135v-8.611h7.135v-9.085l10.11-1.501v10.586h10.942l-.992,8.611h-9.95v19.039c0,2.081.384,3.568,1.151,4.464.769.896,1.994,1.343,3.68,1.343,1.194,0,2.288-.178,3.279-.533.992-.355,1.883-.81,2.672-1.363l3.359,7.939Z"/><path class="b" d="M563.901,127.563v-23.067h-10.75v23.067h-10.495v-54.747h10.495v21.014h10.75v-21.014h10.494v54.747h-10.494Z"/><path class="b" d="M610.26,78.899l2.368,9.164c-1.195.58-2.592,1.001-4.191,1.264s-3.467.395-5.6.395c2.133,1.132,3.76,2.535,4.88,4.207,1.119,1.672,1.68,3.864,1.68,6.576s-.587,5.129-1.76,7.249c-1.174,2.119-2.838,3.785-4.991,4.996-2.155,1.212-4.704,1.817-7.647,1.817-.725,0-1.407-.04-2.048-.118-.64-.079-1.269-.198-1.888-.356-.362.237-.64.58-.831,1.027-.192.448-.288.908-.288,1.383,0,.658.218,1.251.655,1.777.438.527,1.467.79,3.088.79h5.567c2.645,0,4.932.527,6.862,1.58,1.931,1.054,3.429,2.488,4.496,4.306,1.066,1.816,1.6,3.896,1.6,6.24,0,4.292-1.525,7.677-4.575,10.152-3.051,2.475-7.583,3.713-13.599,3.713-4.351,0-7.716-.547-10.094-1.64-2.379-1.093-4.031-2.646-4.96-4.661-.928-2.015-1.392-4.404-1.392-7.169h8.959c0,1.211.197,2.205.592,2.982.395.776,1.151,1.349,2.271,1.718s2.746.554,4.88.554c2.153,0,3.796-.212,4.927-.633,1.13-.421,1.903-.994,2.319-1.718.416-.725.624-1.534.624-2.43,0-1.237-.395-2.238-1.184-3.002s-2.037-1.146-3.743-1.146h-5.407c-3.669,0-6.335-.835-7.999-2.508-1.664-1.672-2.495-3.627-2.495-5.866,0-1.553.336-3.027,1.008-4.424.672-1.396,1.615-2.567,2.831-3.516-2.176-1.422-3.732-3.101-4.671-5.036-.939-1.936-1.408-4.259-1.408-6.972,0-3.16.65-5.878,1.952-8.156,1.301-2.278,3.098-4.035,5.391-5.273,2.293-1.237,4.911-1.856,7.855-1.856,2.538.053,4.745-.164,6.622-.652,1.877-.487,3.562-1.158,5.056-2.015,1.493-.855,2.922-1.771,4.287-2.745ZM594.551,92.408c-1.601,0-2.869.625-3.808,1.876-.939,1.251-1.408,2.969-1.408,5.154,0,2.317.48,4.096,1.44,5.333.959,1.238,2.218,1.856,3.775,1.856,1.685,0,2.97-.618,3.855-1.856.885-1.237,1.327-3.067,1.327-5.491,0-2.343-.438-4.074-1.312-5.193-.875-1.119-2.165-1.679-3.871-1.679Z"/></svg>