<?xml version="1.0" encoding="UTF-8"?><svg id="a" xmlns="http://www.w3.org/2000/svg" viewBox="0 0 228.767 243.541"><defs><style>.b{fill:#444545;}.c{fill:#fff;}</style></defs><path class="b" d="M80.342,0C5,44.302-6.461,115.988,2.688,160.883c17.124,84.025,140.272,107.495,195.927,54.159,38.23-36.637,43.124-99.997-2.874-135.061C155.368,49.205,54.603,69.665,80.342,0Z"/><path class="c" d="M206.085,120.283c-19.555.087-27.319-.64-45.081-.075-4.061.129-6.783,2.374-7.724,4.891-2.723,7.285-4.728,14.069-8.531,23.499-1.692,4.195-1.018,10.219,5.933,9.987h1.773c1.626-.033,2.282,1.437,1.728,2.966l-3.946,11.452c-.565,1.962.007,5.146,4.416,5.258,14.157.358,6.266.017,19.989.001,1.65-.002,2.779,1.674,2.149,3.199l-.282.684c-.623,1.275-1.008,1.625-2.298,1.625l-38.477.208c-.942.003-1.789.576-2.141,1.449l-3.293,8.997c-.582,1.444.363,2.91,1.919,2.891,12.626-.149,33.09.377,42.393.031,9.05-.336,11.86-2.375,14.468-8.971l4.328-14.066c1.468-4.084-.656-8.635-5.307-8.635-15.76,0-1.028-.064-16.841.005-.696.003-1.079-.53-.841-1.185l1.382-3.812c.456-1.259,1.652-2.098,2.992-2.098h6.72c4.407-.13,5.799-1.638,7.296-4.873l7.933-20.853c.333-.914,1.203-1.522,2.176-1.522h5.181c1.353,0,2.558-.855,3.004-2.132l1.755-5.022c.753-2.155-.491-3.91-2.774-3.9ZM182.342,134.85l-3.349,8.875c-.31.872-1.073,1.455-1.907,1.455h-13.719c-1.375,0-2.274-1.525-1.742-2.955l2.648-8.875c.318-.855,1.073-1.421,1.895-1.421h14.421c1.361,0,2.26,1.497,1.754,2.921Z"/><path class="c" d="M92.248,100.838c-10.415-.102-29.817-.534-37.361.058-5.369.421-7.58,2.211-9.453,7.506-3.897,11.019-17.276,48.471-22.648,63.543-.935,2.624,1.013,5.376,3.798,5.376h40.03c2.094.039,3.127-.703,4.095-2.786l3.759-9.48c.692-1.914-.726-3.935-2.762-3.935h-22.289c-2.022,0-3.44-1.996-2.772-3.906l13.05-37.476c.753-2.916,2.63-4.733,5.476-4.614h23.995c1.727,0,3.258-1.102,3.816-2.736.62-1.815,1.129-3.649,2.016-6.184.912-2.603.009-5.34-2.75-5.367Z"/><path class="c" d="M102.439,103.268c1.918-5.711-13.803,38.826-25.52,70.936-.739,2.024.763,4.16,2.917,4.16h9.979c1.328,0,2.508-.845,2.937-2.102l14.681-41.525c.429-1.257,1.609-2.102,2.937-2.102h15.145c2.347.031,1.857,1.574.929,4.127l-12.461,37.473c-.706,2.017.792,4.127,2.929,4.127h9.289c1.31,0,2.479-.822,2.921-2.055l25.476-71.014c.725-2.022-.773-4.151-2.921-4.151h-8.641c-1.301,0-2.464.812-2.913,2.033l-6.561,15.739c-.449,1.221-.612,2.033-1.913,2.033h-16.769c-2.144,0-2.642-1.122-1.924-3.142l3.703-12.488c.719-2.022-.778-4.146-2.923-4.142-1.936.004-4.636,0-8.336-.019-1.341-.007-2.536.839-2.963,2.111Z"/></svg>